<?xml version="1.0" encoding="iso-8859-1" standalone="no"?> 
<?xml-stylesheet href="index.css" type="text/css"?> 
<svg xmlns="http://www.w3.org/2000/svg" xmlns:xlink="http://www.w3.org/1999/xlink" width="400.73833pt" height="114.61095pt" viewBox="-21.53955 -93.0714 400.73833 114.61095 "> 
<g transform="translate(0, 21.53955 ) scale(1,-1) translate(0,93.0714 )"> 
      <g>
 <g stroke="rgb(0.0%,0.0%,0.0%)">
 <g fill="rgb(0.0%,0.0%,0.0%)">
 <g stroke-width="0.4pt">
 <g>
 <g>
 <path d=" M  21.33955 0.0 C  21.33955 11.78566 11.78566 21.33955 0.0 21.33955 C  -11.78566 21.33955 -21.33955 11.78566 -21.33955 0.0 C  -21.33955 -11.78566 -11.78566 -21.33955 0.0 -21.33955 C  11.78566 -21.33955 21.33955 -11.78566 21.33955 0.0 Z M  0.0 0.0  " style="fill:none"/>
 <g>
 <g transform="matrix(1.0,0.0,0.0,1.0,-10.01392,-1.18056)">
 <g fill="rgb(0.0%,0.0%,0.0%)">
 <text style="stroke:none" transform="scale(1,-1) translate(10.01392,0)" text-anchor="middle"  font-size="10"> 
pron</text> 
</g>
 </g>
 </g>
 </g>
 <g>
 <path d=" M  92.8714 0.0 C  92.8714 11.78566 83.3175 21.33955 71.53185 21.33955 C  59.74619 21.33955 50.19229 11.78566 50.19229 0.0 C  50.19229 -11.78566 59.74619 -21.33955 71.53185 -21.33955 C  83.3175 -21.33955 92.8714 -11.78566 92.8714 0.0 Z M  71.53185 0.0  " style="fill:none"/>
 <g>
 <g transform="matrix(1.0,0.0,0.0,1.0,62.0735,-3.47221)">
 <g fill="rgb(0.0%,0.0%,0.0%)">
 <text style="stroke:none" transform="scale(1,-1) translate(9.45834,0)" text-anchor="middle"  font-size="10"> 
verb</text> 
</g>
 </g>
 </g>
 </g>
 <g>
 <path d=" M  164.40324 0.0 C  164.40324 11.78566 154.84935 21.33955 143.06369 21.33955 C  131.27803 21.33955 121.72414 11.78566 121.72414 0.0 C  121.72414 -11.78566 131.27803 -21.33955 143.06369 -21.33955 C  154.84935 -21.33955 164.40324 -11.78566 164.40324 0.0 Z M  143.06369 0.0  " style="fill:none"/>
 <g>
 <g transform="matrix(1.0,0.0,0.0,1.0,135.147,-3.47221)">
 <g fill="rgb(0.0%,0.0%,0.0%)">
 <text style="stroke:none" transform="scale(1,-1) translate(7.91669,0)" text-anchor="middle"  font-size="10"> 
adv</text> 
</g>
 </g>
 </g>
 </g>
 <g>
 <path d=" M  235.93509 0.0 C  235.93509 11.78566 226.3812 21.33955 214.59554 21.33955 C  202.80988 21.33955 193.25598 11.78566 193.25598 0.0 C  193.25598 -11.78566 202.80988 -21.33955 214.59554 -21.33955 C  226.3812 -21.33955 235.93509 -11.78566 235.93509 0.0 Z M  214.59554 0.0  " style="fill:none"/>
 <g>
 <g transform="matrix(1.0,0.0,0.0,1.0,205.13719,-3.47221)">
 <g fill="rgb(0.0%,0.0%,0.0%)">
 <text style="stroke:none" transform="scale(1,-1) translate(9.45834,0)" text-anchor="middle"  font-size="10"> 
verb</text> 
</g>
 </g>
 </g>
 </g>
 <g>
 <path d=" M  307.46693 0.0 C  307.46693 11.78566 297.91304 21.33955 286.12738 21.33955 C  274.34172 21.33955 264.78783 11.78566 264.78783 0.0 C  264.78783 -11.78566 274.34172 -21.33955 286.12738 -21.33955 C  297.91304 -21.33955 307.46693 -11.78566 307.46693 0.0 Z M  286.12738 0.0  " style="fill:none"/>
 <g>
 <g transform="matrix(1.0,0.0,0.0,1.0,279.18292,-3.47221)">
 <g fill="rgb(0.0%,0.0%,0.0%)">
 <text style="stroke:none" transform="scale(1,-1) translate(6.94446,0)" text-anchor="middle"  font-size="10"> 
det</text> 
</g>
 </g>
 </g>
 </g>
 <g>
 <path d=" M  378.99878 0.0 C  378.99878 11.78566 369.44489 21.33955 357.65923 21.33955 C  345.87357 21.33955 336.31967 11.78566 336.31967 0.0 C  336.31967 -11.78566 345.87357 -21.33955 357.65923 -21.33955 C  369.44489 -21.33955 378.99878 -11.78566 378.99878 0.0 Z M  357.65923 0.0  " style="fill:none"/>
 <g>
 <g transform="matrix(1.0,0.0,0.0,1.0,346.82587,-2.15277)">
 <g fill="rgb(0.0%,0.0%,0.0%)">
 <text style="stroke:none" transform="scale(1,-1) translate(10.83336,0)" text-anchor="middle"  font-size="10"> 
noun</text> 
</g>
 </g>
 </g>
 </g>
 <g>
 <path d=" M  21.33955 -71.53185 C  21.33955 -59.74619 11.78566 -50.19229 0.0 -50.19229 C  -11.78566 -50.19229 -21.33955 -59.74619 -21.33955 -71.53185 C  -21.33955 -83.3175 -11.78566 -92.8714 0.0 -92.8714 C  11.78566 -92.8714 21.33955 -83.3175 21.33955 -71.53185 Z M  0.0 -71.53185  " style="fill:none"/>
 <g>
 <g transform="matrix(1.0,0.0,0.0,1.0,-1.80556,-74.9485)">
 <g fill="rgb(0.0%,0.0%,0.0%)">
 <text style="stroke:none" transform="scale(1,-1) translate(1.80556,0)" text-anchor="middle"  font-size="10"> 
I</text> 
</g>
 </g>
 </g>
 </g>
 <g>
 <path d=" M  92.8714 -71.53185 C  92.8714 -59.74619 83.3175 -50.19229 71.53185 -50.19229 C  59.74619 -50.19229 50.19229 -59.74619 50.19229 -71.53185 C  50.19229 -83.3175 59.74619 -92.8714 71.53185 -92.8714 C  83.3175 -92.8714 92.8714 -83.3175 92.8714 -71.53185 Z M  71.53185 -71.53185  " style="fill:none"/>
 <g>
 <g transform="matrix(1.0,0.0,0.0,1.0,66.25406,-75.00406)">
 <g fill="rgb(0.0%,0.0%,0.0%)">
 <text style="stroke:none" transform="scale(1,-1) translate(5.27779,0)" text-anchor="middle"  font-size="10"> 
do</text> 
</g>
 </g>
 </g>
 </g>
 <g>
 <path d=" M  164.40324 -71.53185 C  164.40324 -59.74619 154.84935 -50.19229 143.06369 -50.19229 C  131.27803 -50.19229 121.72414 -59.74619 121.72414 -71.53185 C  121.72414 -83.3175 131.27803 -92.8714 143.06369 -92.8714 C  154.84935 -92.8714 164.40324 -83.3175 164.40324 -71.53185 Z M  143.06369 -71.53185  " style="fill:none"/>
 <g>
 <g transform="matrix(1.0,0.0,0.0,1.0,135.84145,-74.60724)">
 <g fill="rgb(0.0%,0.0%,0.0%)">
 <text style="stroke:none" transform="scale(1,-1) translate(7.22224,0)" text-anchor="middle"  font-size="10"> 
not</text> 
</g>
 </g>
 </g>
 </g>
 <g>
 <path d=" M  235.93509 -71.53185 C  235.93509 -59.74619 226.3812 -50.19229 214.59554 -50.19229 C  202.80988 -50.19229 193.25598 -59.74619 193.25598 -71.53185 C  193.25598 -83.3175 202.80988 -92.8714 214.59554 -92.8714 C  226.3812 -92.8714 235.93509 -83.3175 235.93509 -71.53185 Z M  214.59554 -71.53185  " style="fill:none"/>
 <g>
 <g transform="matrix(1.0,0.0,0.0,1.0,203.20662,-75.00406)">
 <g fill="rgb(0.0%,0.0%,0.0%)">
 <text style="stroke:none" transform="scale(1,-1) translate(11.38892,0)" text-anchor="middle"  font-size="10"> 
know</text> 
</g>
 </g>
 </g>
 </g>
 <g>
 <path d=" M  307.46693 -71.53185 C  307.46693 -59.74619 297.91304 -50.19229 286.12738 -50.19229 C  274.34172 -50.19229 264.78783 -59.74619 264.78783 -71.53185 C  264.78783 -83.3175 274.34172 -92.8714 286.12738 -92.8714 C  297.91304 -92.8714 307.46693 -83.3175 307.46693 -71.53185 Z M  286.12738 -71.53185  " style="fill:none"/>
 <g>
 <g transform="matrix(1.0,0.0,0.0,1.0,276.9607,-75.00406)">
 <g fill="rgb(0.0%,0.0%,0.0%)">
 <text style="stroke:none" transform="scale(1,-1) translate(9.16669,0)" text-anchor="middle"  font-size="10"> 
that</text> 
</g>
 </g>
 </g>
 </g>
 <g>
 <path d=" M  378.99878 -71.53185 C  378.99878 -59.74619 369.44489 -50.19229 357.65923 -50.19229 C  345.87357 -50.19229 336.31967 -59.74619 336.31967 -71.53185 C  336.31967 -83.3175 345.87357 -92.8714 357.65923 -92.8714 C  369.44489 -92.8714 378.99878 -83.3175 378.99878 -71.53185 Z M  357.65923 -71.53185  " style="fill:none"/>
 <g>
 <g transform="matrix(1.0,0.0,0.0,1.0,346.82588,-74.87114)">
 <g fill="rgb(0.0%,0.0%,0.0%)">
 <text style="stroke:none" transform="scale(1,-1) translate(10.83334,0)" text-anchor="middle"  font-size="10"> 
voice</text> 
</g>
 </g>
 </g>
 </g>
 <g>
 <g stroke-width="1.42262pt">
 <path d="  " style="fill:none"/>
 <g>
 <path d=" M  0.0 -21.53955 L  0.0 -47.89316  " style="fill:none"/>
 <g>
 <g transform="matrix(0.0,-1.0,1.0,0.0,0.0,-47.89316)">
 <g>
 <g stroke-width="1.13809pt">
 <g stroke-dasharray="none" stroke-dashoffset="0.0pt">
 <g stroke-linecap="round">
 <g stroke-linejoin="round">
 <path d=" M  -2.12036 2.82715 C  -1.94366 1.76697 0.0 0.1767 0.53009 0.0 C  0.0 -0.1767 -1.94366 -1.76697 -2.12036 -2.82715  " style="fill:none"/>
 </g>
 </g>
 </g>
 </g>
 </g>
  </g>
 </g>
 <g>
 <g>
 <g transform="matrix(1.0,0.0,0.0,1.0,0.0,-35.76591)">
 <g fill="rgb(0.0%,0.0%,0.0%)">
 <text style="stroke:none" transform="scale(1,-1) translate(0.0,0)" text-anchor="middle"  font-size="10"> 
</text> 
</g>
 </g>
 </g>
 </g>
 </g>
 <g>
 <path d=" M  71.53185 -21.53955 L  71.53185 -47.89316  " style="fill:none"/>
 <g>
 <g transform="matrix(0.0,-1.0,1.0,0.0,71.53185,-47.89316)">
 <g>
 <g stroke-width="1.13809pt">
 <g stroke-dasharray="none" stroke-dashoffset="0.0pt">
 <g stroke-linecap="round">
 <g stroke-linejoin="round">
 <path d=" M  -2.12036 2.82715 C  -1.94366 1.76697 0.0 0.1767 0.53009 0.0 C  0.0 -0.1767 -1.94366 -1.76697 -2.12036 -2.82715  " style="fill:none"/>
 </g>
 </g>
 </g>
 </g>
 </g>
  </g>
 </g>
 <g>
 <g>
 <g transform="matrix(1.0,0.0,0.0,1.0,71.53185,-35.76591)">
 <g fill="rgb(0.0%,0.0%,0.0%)">
 <text style="stroke:none" transform="scale(1,-1) translate(0.0,0)" text-anchor="middle"  font-size="10"> 
</text> 
</g>
 </g>
 </g>
 </g>
 </g>
 <g>
 <path d=" M  143.06369 -21.53955 L  143.06369 -47.89316  " style="fill:none"/>
 <g>
 <g transform="matrix(0.0,-1.0,1.0,0.0,143.06369,-47.89316)">
 <g>
 <g stroke-width="1.13809pt">
 <g stroke-dasharray="none" stroke-dashoffset="0.0pt">
 <g stroke-linecap="round">
 <g stroke-linejoin="round">
 <path d=" M  -2.12036 2.82715 C  -1.94366 1.76697 0.0 0.1767 0.53009 0.0 C  0.0 -0.1767 -1.94366 -1.76697 -2.12036 -2.82715  " style="fill:none"/>
 </g>
 </g>
 </g>
 </g>
 </g>
  </g>
 </g>
 <g>
 <g>
 <g transform="matrix(1.0,0.0,0.0,1.0,143.06369,-35.76591)">
 <g fill="rgb(0.0%,0.0%,0.0%)">
 <text style="stroke:none" transform="scale(1,-1) translate(0.0,0)" text-anchor="middle"  font-size="10"> 
</text> 
</g>
 </g>
 </g>
 </g>
 </g>
 <g>
 <path d=" M  214.59554 -21.53955 L  214.59554 -47.89316  " style="fill:none"/>
 <g>
 <g transform="matrix(0.0,-1.0,1.0,0.0,214.59554,-47.89316)">
 <g>
 <g stroke-width="1.13809pt">
 <g stroke-dasharray="none" stroke-dashoffset="0.0pt">
 <g stroke-linecap="round">
 <g stroke-linejoin="round">
 <path d=" M  -2.12036 2.82715 C  -1.94366 1.76697 0.0 0.1767 0.53009 0.0 C  0.0 -0.1767 -1.94366 -1.76697 -2.12036 -2.82715  " style="fill:none"/>
 </g>
 </g>
 </g>
 </g>
 </g>
  </g>
 </g>
 <g>
 <g>
 <g transform="matrix(1.0,0.0,0.0,1.0,214.59554,-35.76591)">
 <g fill="rgb(0.0%,0.0%,0.0%)">
 <text style="stroke:none" transform="scale(1,-1) translate(0.0,0)" text-anchor="middle"  font-size="10"> 
</text> 
</g>
 </g>
 </g>
 </g>
 </g>
 <g>
 <path d=" M  286.12738 -21.53955 L  286.12738 -47.89316  " style="fill:none"/>
 <g>
 <g transform="matrix(0.0,-1.0,1.0,0.0,286.12738,-47.89316)">
 <g>
 <g stroke-width="1.13809pt">
 <g stroke-dasharray="none" stroke-dashoffset="0.0pt">
 <g stroke-linecap="round">
 <g stroke-linejoin="round">
 <path d=" M  -2.12036 2.82715 C  -1.94366 1.76697 0.0 0.1767 0.53009 0.0 C  0.0 -0.1767 -1.94366 -1.76697 -2.12036 -2.82715  " style="fill:none"/>
 </g>
 </g>
 </g>
 </g>
 </g>
  </g>
 </g>
 <g>
 <g>
 <g transform="matrix(1.0,0.0,0.0,1.0,286.12738,-35.76591)">
 <g fill="rgb(0.0%,0.0%,0.0%)">
 <text style="stroke:none" transform="scale(1,-1) translate(0.0,0)" text-anchor="middle"  font-size="10"> 
</text> 
</g>
 </g>
 </g>
 </g>
 </g>
 <g>
 <path d=" M  357.65923 -21.53955 L  357.65923 -47.89316  " style="fill:none"/>
 <g>
 <g transform="matrix(0.0,-1.0,1.0,0.0,357.65923,-47.89316)">
 <g>
 <g stroke-width="1.13809pt">
 <g stroke-dasharray="none" stroke-dashoffset="0.0pt">
 <g stroke-linecap="round">
 <g stroke-linejoin="round">
 <path d=" M  -2.12036 2.82715 C  -1.94366 1.76697 0.0 0.1767 0.53009 0.0 C  0.0 -0.1767 -1.94366 -1.76697 -2.12036 -2.82715  " style="fill:none"/>
 </g>
 </g>
 </g>
 </g>
 </g>
  </g>
 </g>
 <g>
 <g>
 <g transform="matrix(1.0,0.0,0.0,1.0,357.65923,-35.76591)">
 <g fill="rgb(0.0%,0.0%,0.0%)">
 <text style="stroke:none" transform="scale(1,-1) translate(0.0,0)" text-anchor="middle"  font-size="10"> 
</text> 
</g>
 </g>
 </g>
 </g>
 </g>
 <g>
 <path d=" M  21.53955 0.0 L  47.89316 0.0  " style="fill:none"/>
 <g>
 <g transform="matrix(1.0,0.0,0.0,1.0,47.89316,0.0)">
 <g>
 <g stroke-width="1.13809pt">
 <g stroke-dasharray="none" stroke-dashoffset="0.0pt">
 <g stroke-linecap="round">
 <g stroke-linejoin="round">
 <path d=" M  -2.12036 2.82715 C  -1.94366 1.76697 0.0 0.1767 0.53009 0.0 C  0.0 -0.1767 -1.94366 -1.76697 -2.12036 -2.82715  " style="fill:none"/>
 </g>
 </g>
 </g>
 </g>
 </g>
  </g>
 </g>
 <g>
 <g>
 <g transform="matrix(1.0,0.0,0.0,1.0,35.76591,0.0)">
 <g fill="rgb(0.0%,0.0%,0.0%)">
 <text style="stroke:none" transform="scale(1,-1) translate(0.0,0)" text-anchor="middle"  font-size="10"> 
</text> 
</g>
 </g>
 </g>
 </g>
 </g>
 <g>
 <path d=" M  93.0714 0.0 L  119.425 0.0  " style="fill:none"/>
 <g>
 <g transform="matrix(1.0,0.0,0.0,1.0,119.425,0.0)">
 <g>
 <g stroke-width="1.13809pt">
 <g stroke-dasharray="none" stroke-dashoffset="0.0pt">
 <g stroke-linecap="round">
 <g stroke-linejoin="round">
 <path d=" M  -2.12036 2.82715 C  -1.94366 1.76697 0.0 0.1767 0.53009 0.0 C  0.0 -0.1767 -1.94366 -1.76697 -2.12036 -2.82715  " style="fill:none"/>
 </g>
 </g>
 </g>
 </g>
 </g>
  </g>
 </g>
 <g>
 <g>
 <g transform="matrix(1.0,0.0,0.0,1.0,107.29776,0.0)">
 <g fill="rgb(0.0%,0.0%,0.0%)">
 <text style="stroke:none" transform="scale(1,-1) translate(0.0,0)" text-anchor="middle"  font-size="10"> 
</text> 
</g>
 </g>
 </g>
 </g>
 </g>
 <g>
 <path d=" M  164.60324 0.0 L  190.95685 0.0  " style="fill:none"/>
 <g>
 <g transform="matrix(1.0,0.0,0.0,1.0,190.95685,0.0)">
 <g>
 <g stroke-width="1.13809pt">
 <g stroke-dasharray="none" stroke-dashoffset="0.0pt">
 <g stroke-linecap="round">
 <g stroke-linejoin="round">
 <path d=" M  -2.12036 2.82715 C  -1.94366 1.76697 0.0 0.1767 0.53009 0.0 C  0.0 -0.1767 -1.94366 -1.76697 -2.12036 -2.82715  " style="fill:none"/>
 </g>
 </g>
 </g>
 </g>
 </g>
  </g>
 </g>
 <g>
 <g>
 <g transform="matrix(1.0,0.0,0.0,1.0,178.8296,0.0)">
 <g fill="rgb(0.0%,0.0%,0.0%)">
 <text style="stroke:none" transform="scale(1,-1) translate(0.0,0)" text-anchor="middle"  font-size="10"> 
</text> 
</g>
 </g>
 </g>
 </g>
 </g>
 <g>
 <path d=" M  236.13509 0.0 L  262.4887 0.0  " style="fill:none"/>
 <g>
 <g transform="matrix(1.0,0.0,0.0,1.0,262.4887,0.0)">
 <g>
 <g stroke-width="1.13809pt">
 <g stroke-dasharray="none" stroke-dashoffset="0.0pt">
 <g stroke-linecap="round">
 <g stroke-linejoin="round">
 <path d=" M  -2.12036 2.82715 C  -1.94366 1.76697 0.0 0.1767 0.53009 0.0 C  0.0 -0.1767 -1.94366 -1.76697 -2.12036 -2.82715  " style="fill:none"/>
 </g>
 </g>
 </g>
 </g>
 </g>
  </g>
 </g>
 <g>
 <g>
 <g transform="matrix(1.0,0.0,0.0,1.0,250.36145,0.0)">
 <g fill="rgb(0.0%,0.0%,0.0%)">
 <text style="stroke:none" transform="scale(1,-1) translate(0.0,0)" text-anchor="middle"  font-size="10"> 
</text> 
</g>
 </g>
 </g>
 </g>
 </g>
 <g>
 <path d=" M  307.66693 0.0 L  334.02054 0.0  " style="fill:none"/>
 <g>
 <g transform="matrix(1.0,0.0,0.0,1.0,334.02054,0.0)">
 <g>
 <g stroke-width="1.13809pt">
 <g stroke-dasharray="none" stroke-dashoffset="0.0pt">
 <g stroke-linecap="round">
 <g stroke-linejoin="round">
 <path d=" M  -2.12036 2.82715 C  -1.94366 1.76697 0.0 0.1767 0.53009 0.0 C  0.0 -0.1767 -1.94366 -1.76697 -2.12036 -2.82715  " style="fill:none"/>
 </g>
 </g>
 </g>
 </g>
 </g>
  </g>
 </g>
 <g>
 <g>
 <g transform="matrix(1.0,0.0,0.0,1.0,321.8933,0.0)">
 <g fill="rgb(0.0%,0.0%,0.0%)">
 <text style="stroke:none" transform="scale(1,-1) translate(0.0,0)" text-anchor="middle"  font-size="10"> 
</text> 
</g>
 </g>
 </g>
 </g>
 </g>
 </g>
 </g>
 </g>
 </g>
 </g>
 </g>
 </g>
 
                                                                                                                        </g> 
</svg> 
